<?xml version="1.0" standalone="no"?>
<!DOCTYPE svg PUBLIC "-//W3C//DTD SVG 20010904//EN"
 "http://www.w3.org/TR/2001/REC-SVG-20010904/DTD/svg10.dtd">
<svg version="1.0" xmlns="http://www.w3.org/2000/svg"
 width="598.000000pt" height="598.000000pt" viewBox="0 0 598.000000 598.000000"
 preserveAspectRatio="xMidYMid meet">
<metadata>
Created by potrace 1.14, written by Peter Selinger 2001-2017
</metadata>
<g transform="translate(0.000000,598.000000) scale(0.100000,-0.100000)"
fill="#000000" stroke="none">
<path d="M3543 5961 c-43 -20 -68 -44 -243 -232 -58 -62 -126 -135 -152 -162
-27 -27 -48 -50 -48 -52 0 -1 -24 -27 -52 -57 -29 -31 -100 -106 -158 -168
-58 -62 -121 -129 -140 -150 -19 -20 -77 -82 -128 -137 -51 -55 -116 -125
-145 -156 -29 -30 -92 -99 -142 -152 -49 -53 -108 -116 -130 -139 -54 -58
-167 -179 -300 -321 -60 -65 -121 -130 -135 -145 -14 -15 -72 -78 -130 -140
-58 -62 -121 -129 -140 -150 -254 -271 -303 -324 -425 -455 -55 -60 -120 -129
-145 -156 -25 -26 -67 -71 -95 -101 -147 -158 -294 -315 -322 -344 -59 -62
-69 -81 -80 -162 -13 -94 70 -204 165 -218 26 -4 511 -8 1077 -9 567 -1 1031
-3 1032 -3 1 -1 -3 -17 -8 -34 -6 -18 -12 -42 -15 -53 -7 -29 -9 -34 -27 -95
-9 -30 -19 -66 -21 -80 -3 -14 -5 -25 -6 -25 -1 0 -3 -7 -5 -15 -6 -22 -17
-62 -75 -275 -29 -104 -57 -208 -62 -230 -5 -22 -12 -47 -15 -55 -3 -8 -8 -22
-9 -30 -2 -8 -17 -64 -34 -125 -17 -60 -33 -117 -35 -126 -2 -9 -8 -34 -15
-55 -15 -54 -41 -146 -45 -164 -2 -8 -11 -42 -20 -75 -9 -33 -18 -67 -20 -75
-2 -8 -38 -139 -80 -290 -42 -151 -77 -291 -79 -310 -4 -57 14 -107 54 -153
46 -52 98 -75 166 -72 71 3 120 32 206 127 42 45 98 106 125 134 26 28 93 100
148 159 55 59 125 134 155 166 59 62 161 171 413 443 51 54 112 120 137 146
25 26 86 92 135 145 50 54 123 132 163 174 40 42 87 92 103 111 17 19 63 69
103 111 39 41 121 128 181 194 61 65 128 137 150 160 22 23 85 90 140 150 55
59 123 131 150 160 28 29 87 93 132 143 46 49 109 117 142 151 32 34 95 101
139 149 44 48 97 105 119 128 88 94 263 282 292 314 96 108 63 267 -69 336
-33 17 -90 18 -1087 19 -578 0 -1054 3 -1058 6 -3 4 6 49 20 100 26 89 29 103
39 148 2 10 14 51 26 91 12 40 23 80 25 89 5 20 22 84 80 296 26 93 48 176 50
185 2 8 14 49 25 90 12 41 24 84 26 95 7 26 8 31 24 85 7 25 15 52 16 60 2 8
8 31 14 50 11 37 80 288 84 305 1 6 5 16 9 23 5 6 6 12 3 12 -2 0 4 30 15 68
11 37 21 76 24 87 2 11 13 54 25 95 12 41 23 82 25 90 3 8 11 39 19 68 21 77
14 153 -20 206 -52 82 -174 118 -261 77z"/>
</g>
</svg>
